# xmcd CD database file
#
# Track frame offsets:
#	150
#	26207
#	50152
#	66235
#	85075
#	107147
#	131457
#	143700
#
# Disc length: 2122 seconds
#
# Revision: 0
# Processed by: cddbd v1.5.2PL0 Copyright (c) Steve Scherf et al.
# Submitted via: CDex 1.70beta2
#
DISCID=71084808
DTITLE=Kako - Kako
DYEAR=1900
DGENRE=Salsa
TTITLE0=Con Paso Firle
TTITLE1=Mi Bomba
TTITLE2=Mi Unico Anelo
TTITLE3=Sinceridad
TTITLE4=La Lengua
TTITLE5=Mañana Y Sabor
TTITLE6=Mala
TTITLE7=La Cazuela
EXTD=
EXTT0=
EXTT1=
EXTT2=
EXTT3=
EXTT4=
EXTT5=
EXTT6=
EXTT7=
PLAYORDER=
